<svg width="61" height="64" viewBox="0 0 61 64" fill="none" xmlns="http://www.w3.org/2000/svg">
<path d="M23.2901 58.5934C19.0106 57.3898 15.247 55.1736 11.961 52.0787C10.9293 52.4417 9.87858 52.8047 8.80872 53.1485C8.312 53.3014 7.81527 53.2441 7.29945 53.053C6.38242 52.7091 5.82839 52.0405 5.42719 51.219C4.87315 50.13 4.16628 49.1366 3.61224 48.0476C3.11552 47.035 2.38954 46.1562 1.96924 45.1055C1.75909 44.5896 1.20505 44.2458 1.20505 43.5962C0.70833 42.7938 1.18595 42.0869 1.47252 41.38C1.54894 41.189 1.64446 40.9406 1.8164 40.8642C2.50417 40.5585 2.84805 39.8708 3.4212 39.4505C3.68866 39.2594 3.97523 39.0493 4.28091 38.82C3.8415 36.623 3.4594 34.4259 3.4594 32.1716C3.4594 29.9363 3.8606 27.7775 4.28091 25.6378C3.53582 24.95 2.84805 24.2813 2.12208 23.6509C1.37699 23.0013 0.937586 22.1989 1.03311 21.3583C1.09042 20.8998 1.22416 20.4031 1.45341 20.021C2.16029 18.8938 2.80985 17.7093 3.49761 16.5631C4.05165 15.646 4.52927 14.6908 5.14062 13.7929C5.4654 13.3344 5.65644 12.7994 5.98122 12.3218C6.61168 11.4239 7.87259 10.9845 8.90424 11.2902C9.82127 11.5576 10.681 11.9588 11.6171 12.1308C11.7126 12.1499 11.789 12.2836 11.8846 12.3791C15.1897 9.30327 18.9533 7.10623 23.271 5.82622C23.4429 5.31039 23.4811 4.75635 23.6913 4.22142C23.8441 3.82022 23.8059 3.3235 23.8823 2.88409C24.0925 1.73781 24.7993 1.06915 25.8119 0.725262C26.1749 0.610634 26.5379 0.496006 26.9773 0.496006C29.6519 0.534215 32.3266 0.534215 35.0012 0.496006C35.7654 0.496006 36.415 0.801681 37.0263 1.14557C37.5804 1.43214 37.8861 2.04349 38.0389 2.61663C38.3064 3.66738 38.4592 4.73725 38.6693 5.84532C42.9679 7.06802 46.7315 9.26506 50.0175 12.36C51.0492 11.997 52.0999 11.634 53.1698 11.2902C53.6665 11.1373 54.1632 11.1946 54.6791 11.3857C55.5961 11.7296 56.1501 12.3982 56.5513 13.2197C57.1054 14.3087 57.8122 15.3021 58.3663 16.3911C58.863 17.4037 59.589 18.2825 60.0093 19.3332C60.2194 19.8491 60.7735 20.1929 60.7735 20.8425C61.2702 21.6449 60.7926 22.3518 60.506 23.0586C60.4296 23.2497 60.3341 23.4981 60.1621 23.5745C59.4743 23.8801 59.1305 24.5679 58.5573 24.9882C58.2899 25.1793 58.0033 25.3894 57.6976 25.6187C58.137 27.8157 58.5191 30.0128 58.5191 32.2671C58.5191 34.5024 58.1752 36.6612 57.6976 38.8009C58.4427 39.4887 59.1305 40.1573 59.8564 40.7878C60.6015 41.4374 61.0409 42.2398 60.9454 43.0804C60.8881 43.5389 60.7735 44.0356 60.5251 44.4177C59.8373 45.5258 59.1878 46.672 58.5191 47.7992C57.6785 49.1939 56.9907 50.7031 56.0164 52.0214C55.8445 52.7473 55.1567 52.8046 54.66 53.0721C54.125 53.3587 53.5901 53.2823 52.9979 53.1103C52.119 52.862 51.2784 52.4226 50.3614 52.3079C50.2659 52.2888 50.1895 52.1551 50.0939 52.0596C46.7888 55.1736 43.0443 57.3898 38.6693 58.6316C38.4592 59.6632 38.2681 60.7331 38.0389 61.7839C37.8096 62.8155 37.1219 63.4651 36.1475 63.7707C35.7845 63.8854 35.4024 64 34.9821 64C32.3075 63.9618 29.6328 63.9618 26.9582 64C26.194 64 25.5444 63.6943 24.9331 63.3504C24.379 63.0639 24.0543 62.4525 23.9396 61.8794C23.7295 60.7522 23.5193 59.7015 23.2901 58.5934ZM24.5319 41.7621C24.914 41.552 25.3534 41.4183 25.3725 40.9597C25.4107 40.272 25.5062 39.5651 25.3534 38.9155C25.0859 37.8075 24.6083 36.7376 24.3217 35.6295C24.1307 34.9227 23.7104 34.254 23.7295 33.4898C23.1181 31.9805 22.736 30.3948 22.2202 28.8665C21.7999 27.6056 21.4942 26.3064 21.0357 25.0646C20.7874 24.3769 20.73 23.6127 20.2715 23.0013C20.2333 22.944 20.2142 22.9058 20.2142 22.9058C19.6984 22.5619 19.1635 22.6766 18.7049 22.6766C18.4375 22.9249 18.2082 23.1351 17.9981 23.3261C17.979 23.9375 17.5396 24.4151 17.616 25.0073C16.9473 26.4975 16.6607 28.1023 16.1067 29.6307C15.8201 30.414 15.6482 31.2164 15.4189 32.0187C15.2088 32.8211 14.7503 33.5471 14.7503 34.4068C14.0243 36.0307 13.6613 37.7693 13.1264 39.4696C12.9926 39.8899 12.9162 40.2911 13.1837 40.6923C13.2601 40.8069 13.2219 40.9788 13.2219 40.9597C13.5276 41.2845 13.7568 41.5138 13.9479 41.743C14.3109 41.743 14.693 41.743 15.0942 41.743C15.3616 41.3992 15.6291 41.0744 15.8775 40.7496C15.8201 39.6606 16.0494 38.9346 16.5461 37.7693C18.4184 37.7693 20.2906 37.7693 22.1629 37.7693C22.3157 38.3806 22.3922 38.9729 22.6023 39.5269C22.6978 39.7561 22.7933 39.9854 22.7551 40.2147C22.6978 40.9215 22.9271 41.4756 23.7295 41.743C23.9205 41.7621 24.2071 41.7621 24.5319 41.7621ZM29.0024 41.7621C29.5182 41.7239 30.1104 41.8768 30.5307 41.4565C30.6836 41.2654 30.8173 41.0744 31.0084 40.8069C31.0084 38.8964 31.0084 36.8904 31.0084 34.8845C32.403 34.8845 33.7785 34.8271 35.135 34.9036C35.9565 34.9418 36.6251 34.6934 37.2747 34.2922C37.5804 34.1012 37.8478 33.8146 38.1153 33.5471C38.8222 32.8594 39.1661 32.0187 39.1852 31.0253C39.1852 29.4587 39.1852 27.9112 39.1852 26.3447C39.1852 26.1154 39.1279 25.867 39.0705 25.6378C38.8604 24.8163 38.421 24.2049 37.8287 23.67C37.141 23.0395 36.3386 22.6574 35.3833 22.6574C33.2436 22.6574 31.123 22.6574 28.9642 22.6574C28.754 22.8867 28.5439 23.116 28.2955 23.3452C28.2955 29.2295 28.2955 35.1519 28.2955 41.0935C28.5439 41.3036 28.7731 41.5329 29.0024 41.7621ZM42.7577 41.7621C44.076 41.7621 45.4133 41.7621 46.7315 41.7621C46.9608 41.5329 47.19 41.3036 47.4193 41.0935C47.4193 40.7305 47.4193 40.3866 47.4193 40.0236C47.4193 39.9854 47.4193 39.9663 47.4193 39.9472C47.1327 39.4123 46.6933 39.0875 46.1202 39.0302C46.1202 34.4641 46.1202 29.9172 46.1202 25.4658C46.5405 25.2557 46.9035 25.0646 47.3238 24.8354C47.3811 24.3387 47.4193 23.8228 47.4575 23.4598C47.1518 23.116 46.9417 22.8676 46.7697 22.6766C45.3942 22.6766 44.0569 22.6766 42.8724 22.6766C42.5476 22.9631 42.3183 23.1733 42.0318 23.4407C42.0891 23.8993 42.1655 24.4151 42.2228 24.8545C42.6813 25.0837 43.0443 25.2748 43.3691 25.4467C43.3691 29.9936 43.3691 34.5406 43.3691 39.0493C43.1781 39.0875 42.9679 39.0493 42.8915 39.1448C42.624 39.4123 42.1655 39.4887 42.07 39.9281C42.07 40.3102 42.07 40.6923 42.07 41.0744C42.2992 41.3036 42.5285 41.5329 42.7577 41.7621Z" fill="white"/>
<path d="M21.1502 34.8466C20.023 34.8848 18.8385 34.9039 17.654 34.9421C17.6158 34.9421 17.5585 35.0185 17.4438 35.1141C17.463 33.9296 18.1316 32.9743 18.208 31.8854C18.7812 30.9301 18.8385 29.803 19.2206 28.7331C19.3352 28.8477 19.5072 28.9624 19.5072 29.0579C19.5263 29.8794 20.0039 30.5862 20.1567 31.3695C20.2713 31.9045 20.577 32.4203 20.6534 32.9552C20.7299 33.643 21.1884 34.1588 21.1502 34.8466Z" fill="white"/>
<path d="M36.5295 31.1413C36.3958 31.3515 36.2811 31.5616 36.1283 31.7527C35.8608 32.0583 35.5169 32.2303 35.0775 32.2112C33.7402 32.1921 32.4029 32.2112 31.0273 32.2112C31.0273 29.9377 31.0273 27.6643 31.0273 25.3335C32.422 25.3335 33.8548 25.3144 35.2686 25.3335C35.9372 25.3526 36.5104 26.0404 36.5295 26.7663C36.5295 27.9699 36.5295 29.1735 36.5295 30.3771C36.5295 30.6446 36.5295 30.893 36.5295 31.1413Z" fill="white"/>
</svg>
