<svg width="53" height="60" viewBox="0 0 53 60" fill="none" xmlns="http://www.w3.org/2000/svg">
<path d="M0.00763258 0.0105726C0.00763258 0.243169 -0.00294892 0.401758 0.00763258 0.560346C0.40973 4.95854 0.811826 9.35673 1.20334 13.7655C1.75358 20.0033 2.29324 26.2411 2.84347 32.4684C3.46778 39.4674 4.10267 46.4559 4.70582 53.4549C4.74814 53.9624 4.92803 54.1844 5.4042 54.3113C12.1764 56.1721 18.9274 58.0434 25.6995 59.8936C26.1545 60.0205 26.7048 60.0416 27.1598 59.9148C33.9531 58.054 40.7358 56.1615 47.5291 54.2902C48.0476 54.1421 48.2275 53.9095 48.2698 53.3809C48.4815 50.7378 48.7354 48.0841 48.9682 45.4409C49.3597 41.0639 49.7407 36.6868 50.1322 32.3098C50.5872 27.1715 51.0528 22.0438 51.5078 16.9055C51.8464 13.0783 52.2062 9.26157 52.5448 5.4343C52.7035 3.63696 52.8411 1.83963 52.9892 0H0.00763258V0.0105726ZM42.7675 15.2774C42.4183 19.1469 42.0691 23.0271 41.7199 26.8966C41.3178 31.3477 40.9157 35.7987 40.5136 40.2392C40.3972 41.5185 40.2279 42.7978 40.1962 44.0876C40.175 44.7748 39.8787 44.9546 39.3073 45.1132C35.2229 46.2127 31.149 47.344 27.0751 48.4647C26.8952 48.5175 26.7259 48.581 26.546 48.6338C26.4825 48.6021 26.4191 48.581 26.345 48.5492C21.9854 47.3651 17.6258 46.1704 13.2663 44.9651C13.0864 44.9123 12.8536 44.6268 12.8324 44.4259C12.5255 41.1273 12.2504 37.8287 11.9541 34.4666H18.6099C18.7263 35.7882 18.8533 37.1309 18.9591 38.4842C19.0543 39.7317 19.0437 39.7317 20.2183 40.0489C22.324 40.6092 24.4403 41.159 26.546 41.7088L26.5249 41.6559C28.8316 41.0427 31.1384 40.4401 33.4452 39.7846C33.6568 39.7212 33.9002 39.3828 33.9319 39.1502C34.0695 38.1353 34.1435 37.1097 34.2282 36.0948C34.3658 34.456 34.5033 32.8173 34.6515 31.1045H26.5249L26.546 31.0622C26.4931 31.0622 26.4296 31.0622 26.3767 31.0622H11.6473C11.4462 28.8737 11.2558 26.7063 11.0547 24.4755H26.3873C26.4402 24.4755 26.5037 24.4755 26.5566 24.4755L26.5354 24.4332H35.244C35.4451 22.1601 35.6461 19.9399 35.8472 17.6773H26.5249L26.546 17.635C26.4931 17.635 26.4296 17.635 26.3767 17.635C21.16 17.6456 15.9434 17.6456 10.7267 17.6562C10.6526 17.6562 10.5785 17.6245 10.441 17.5822C10.2505 15.4254 10.0495 13.2686 9.85901 11.0483H26.3767C26.4296 11.0483 26.4931 11.0483 26.546 11.0483L26.5249 11.006H43.1167C43.0003 12.4862 42.8839 13.8818 42.7675 15.2774Z" fill="white"/>
</svg>
