<svg width="61" height="60" viewBox="0 0 61 60" fill="none" xmlns="http://www.w3.org/2000/svg">
<path d="M0.496094 0C20.5096 0 40.4826 0 60.4961 0C60.4961 20.0135 60.4961 40.027 60.4961 60C40.5231 60 20.5096 60 0.496094 60C0.496094 39.946 0.496094 19.973 0.496094 0ZM54.176 31.7623C52.9606 29.5746 51.2996 28.0756 48.9093 27.549C47.2078 27.1438 45.5062 27.1438 43.8047 27.5084C38.2949 28.6428 35.9451 35.287 39.5103 39.7029C40.7662 41.2424 42.4272 42.1742 44.1693 42.9845C45.7088 43.7137 47.2888 44.4024 48.8283 45.1722C49.8816 45.6988 50.3273 46.6712 50.2057 47.846C50.0842 49.0209 49.2739 49.6691 48.2611 50.0338C45.9924 50.844 43.359 50.1148 41.8195 48.2107C41.4954 47.8055 41.1713 47.3599 40.8472 46.9142C39.3077 47.8055 37.8087 48.6563 36.3097 49.5476C37.2415 51.3707 38.5379 52.8292 40.3205 53.8015C43.359 55.4625 46.5596 55.7056 49.8411 54.8953C51.9883 54.3687 53.8114 53.2748 54.9458 51.2897C57.0525 47.5219 55.8371 42.8224 52.1099 40.5132C50.4488 39.5003 48.5852 38.8116 46.8431 37.9203C45.9924 37.4747 45.1011 37.0695 44.3718 36.5024C43.0754 35.449 43.3185 33.3423 44.777 32.5321C46.1949 31.7218 48.1801 32.208 49.2739 33.6259C49.517 33.9095 49.6791 34.2336 49.9221 34.5577C51.2996 33.6259 52.7176 32.6941 54.176 31.7623ZM16.2962 50.1553C17.1065 51.8974 18.2814 53.2748 19.9424 54.1661C22.0896 55.341 24.4394 55.5435 26.8296 55.1789C28.9768 54.8548 30.7594 53.8825 31.9343 51.9379C32.9066 50.3173 33.1902 48.5348 33.1902 46.6306C33.1902 40.4726 33.1902 34.3147 33.1902 28.1566C33.1902 27.9946 33.1902 27.792 33.1902 27.5895C31.2861 27.5895 29.463 27.5895 27.5589 27.5895C27.5589 27.8325 27.5589 28.0351 27.5589 28.2782C27.5589 34.3552 27.5589 40.3916 27.5589 46.4686C27.5589 47.0358 27.5184 47.6435 27.4373 48.2107C27.2753 49.1425 26.7891 49.8312 25.8573 50.1148C24.1153 50.6415 22.6973 50.1148 21.6845 48.6158C21.4414 48.2107 21.1983 47.8055 20.9147 47.4004C19.3347 48.3322 17.8357 49.2235 16.2962 50.1553Z" fill="white"/>
</svg>
