<svg width="60" height="60" viewBox="0 0 60 60" fill="none" xmlns="http://www.w3.org/2000/svg">
<path d="M7.9 9.8V50.3C3 44.9 0 37.8 0 30C0 22.2 3 15.1 7.9 9.8Z" fill="white"/>
<path d="M11.1001 14.2L28.4001 48.9H11.1001V14.2Z" fill="white"/>
<path d="M30 45L13 11.1H47L30 45Z" fill="white"/>
<path d="M29.9998 0C37.7998 0 44.8998 3 50.1998 7.9H9.7998C15.0998 3 22.1998 0 29.9998 0Z" fill="white"/>
<path d="M48.9001 48.9H31.6001L48.9001 14.2V48.9Z" fill="white"/>
<path d="M50.1998 52.1C44.8998 57 37.7998 60 29.9998 60C22.1998 60 15.0998 57 9.7998 52.1H50.1998Z" fill="white"/>
<path d="M52.1001 50.2V9.8C57.0001 15.1 60.0001 22.2 60.0001 30C60.0001 37.8 57.0001 44.9 52.1001 50.2Z" fill="white"/>
<path d="M11.1001 14.2L28.4001 48.9H11.1001V14.2Z" fill="white"/>
<path d="M30 45L13 11.1H47L30 45Z" fill="white"/>
<path d="M31.6001 48.9L48.9001 14.2V48.9H31.6001Z" fill="white"/>
<path d="M13 11.1H47L30 45L13 11.1Z" fill="white"/>
</svg>
