<svg width="66" height="60" viewBox="0 0 66 60" fill="none" xmlns="http://www.w3.org/2000/svg">
<g clip-path="url(#clip0_39793_998)">
<path fill-rule="evenodd" clip-rule="evenodd" d="M63.7324 15.7639L58.0518 23.7083L52.3712 15.7639H55.4685C55.2324 9.86111 50.3574 5.13889 44.399 5.13889C39.3713 5.13889 35.1074 8.51389 33.7601 13.1111C32.1213 12.5833 30.4268 12.25 28.7046 12.0972C28.899 11.3611 29.149 10.625 29.4546 9.91666C30.274 7.98611 31.4407 6.25 32.9268 4.76389C34.4129 3.27778 36.149 2.09722 38.0796 1.29167C40.0796 0.430555 42.2046 0 44.399 0C46.5935 0 48.7185 0.430555 50.7185 1.27778C52.649 2.09722 54.3851 3.26389 55.8712 4.75C57.3574 6.23611 58.524 7.97222 59.3435 9.90277C60.1351 11.7639 60.5657 13.7361 60.6074 15.7639H63.7324Z" fill="white"/>
<path fill-rule="evenodd" clip-rule="evenodd" d="M55.7879 60V56.5833H36.2046C36.3435 56.5139 36.4824 56.4584 36.6213 56.3889C38.7463 55.375 40.7046 54.0556 42.4546 52.4445C42.6907 52.2222 42.9129 52.0139 43.1213 51.8056C43.3574 51.5695 43.6074 51.3195 43.8435 51.0556C44.1213 50.75 44.399 50.4306 44.649 50.1111H55.7879V46.6945L65.0935 53.3472L55.7879 60Z" fill="white"/>
<path fill-rule="evenodd" clip-rule="evenodd" d="M48.5656 35.3194C48.5656 38.2778 47.9822 41.1528 46.8433 43.8611C45.8711 46.1667 44.51 48.2778 42.8156 50.125C42.5933 50.3611 42.3711 50.5972 42.1489 50.8333C41.9405 51.0417 41.7322 51.2361 41.5239 51.4444C39.885 52.9583 38.0517 54.1944 36.0517 55.1528C35.7739 55.2917 35.4822 55.4167 35.1905 55.5417C35.1767 55.5417 35.1767 55.5555 35.1628 55.5555C33.4961 56.2639 31.7044 56.6111 29.885 56.6111H0.996094V50.1528H27.8155C35.9267 50.1528 42.5794 43.6667 42.6906 35.5555C42.6906 35.4861 42.6906 35.4167 42.6906 35.3472C42.6906 26.4861 35.4961 19.2917 26.635 19.2917C17.7739 19.2639 10.5794 26.4444 10.5794 35.3194H14.3017L7.64887 44.625L0.996094 35.3194H4.71832C4.71832 32.3611 5.30165 29.4861 6.44054 26.7778C7.55165 24.1667 9.1211 21.8194 11.135 19.8056C13.1489 17.7917 15.4961 16.2083 18.1072 15.1111C20.8155 13.9722 23.6905 13.3889 26.6489 13.3889C27.2461 13.3889 27.8294 13.4167 28.4128 13.4583C30.135 13.5972 31.8155 13.9306 33.4544 14.4722C34.0378 14.6667 34.6072 14.875 35.1767 15.125C37.7878 16.2361 40.135 17.8056 42.1489 19.8194C44.1628 21.8333 45.7461 24.1805 46.8433 26.7917C47.9822 29.4861 48.5656 32.3611 48.5656 35.3194Z" fill="white"/>
</g>
<defs>
<clipPath id="clip0_39793_998">
<rect width="64.1111" height="60" fill="white" transform="translate(0.996094)"/>
</clipPath>
</defs>
</svg>
